<mxfile host="app.diagrams.net" modified="2021-11-01T15:49:08.310Z" agent="5.0 (Windows NT 10.0; Win64; x64) AppleWebKit/537.36 (KHTML, like Gecko) Chrome/95.0.4638.54 Safari/537.36" etag="d1SfxrCnvVguF3IdaPzP" version="15.3.2" type="github">
  <diagram id="C5RBs43oDa-KdzZeNtuy" name="Page-1">
    <mxGraphModel dx="1673" dy="887" grid="1" gridSize="10" guides="1" tooltips="1" connect="1" arrows="1" fold="1" page="1" pageScale="1" pageWidth="1169" pageHeight="827" math="0" shadow="0">
      <root>
        <mxCell id="WIyWlLk6GJQsqaUBKTNV-0" />
        <mxCell id="WIyWlLk6GJQsqaUBKTNV-1" parent="WIyWlLk6GJQsqaUBKTNV-0" />
        <mxCell id="emG7d5RUnfRBMHwXVIp8-57" style="edgeStyle=orthogonalEdgeStyle;rounded=0;orthogonalLoop=1;jettySize=auto;html=1;entryX=0;entryY=0.5;entryDx=0;entryDy=0;fontSize=13;fontStyle=1" edge="1" parent="WIyWlLk6GJQsqaUBKTNV-1" source="emG7d5RUnfRBMHwXVIp8-46" target="emG7d5RUnfRBMHwXVIp8-49">
          <mxGeometry relative="1" as="geometry" />
        </mxCell>
        <mxCell id="emG7d5RUnfRBMHwXVIp8-46" value="시작" style="rounded=1;whiteSpace=wrap;html=1;fontSize=13;fontStyle=1" vertex="1" parent="WIyWlLk6GJQsqaUBKTNV-1">
          <mxGeometry x="77" y="330" width="120" height="60" as="geometry" />
        </mxCell>
        <mxCell id="emG7d5RUnfRBMHwXVIp8-52" value="YES" style="edgeStyle=orthogonalEdgeStyle;rounded=0;orthogonalLoop=1;jettySize=auto;html=1;entryX=1;entryY=0.5;entryDx=0;entryDy=0;fontSize=13;fontStyle=1" edge="1" parent="WIyWlLk6GJQsqaUBKTNV-1" source="emG7d5RUnfRBMHwXVIp8-47" target="emG7d5RUnfRBMHwXVIp8-48">
          <mxGeometry x="-0.1765" y="-10" relative="1" as="geometry">
            <mxPoint as="offset" />
          </mxGeometry>
        </mxCell>
        <mxCell id="emG7d5RUnfRBMHwXVIp8-53" value="NO" style="edgeStyle=orthogonalEdgeStyle;rounded=0;orthogonalLoop=1;jettySize=auto;html=1;fontSize=13;fontStyle=1" edge="1" parent="WIyWlLk6GJQsqaUBKTNV-1" source="emG7d5RUnfRBMHwXVIp8-47" target="emG7d5RUnfRBMHwXVIp8-49">
          <mxGeometry x="-0.9729" y="-20" relative="1" as="geometry">
            <Array as="points">
              <mxPoint x="982" y="60" />
              <mxPoint x="367" y="60" />
            </Array>
            <mxPoint y="1" as="offset" />
          </mxGeometry>
        </mxCell>
        <mxCell id="emG7d5RUnfRBMHwXVIp8-47" value="자동차 침범 이벤트" style="rhombus;whiteSpace=wrap;html=1;fontSize=13;fontStyle=1" vertex="1" parent="WIyWlLk6GJQsqaUBKTNV-1">
          <mxGeometry x="872" y="135" width="220" height="70" as="geometry" />
        </mxCell>
        <mxCell id="emG7d5RUnfRBMHwXVIp8-82" style="edgeStyle=orthogonalEdgeStyle;rounded=0;orthogonalLoop=1;jettySize=auto;html=1;entryX=1;entryY=0.5;entryDx=0;entryDy=0;fontSize=13;fontStyle=1" edge="1" parent="WIyWlLk6GJQsqaUBKTNV-1" source="emG7d5RUnfRBMHwXVIp8-48" target="emG7d5RUnfRBMHwXVIp8-81">
          <mxGeometry relative="1" as="geometry" />
        </mxCell>
        <mxCell id="emG7d5RUnfRBMHwXVIp8-48" value="차단기 활성화" style="rounded=0;whiteSpace=wrap;html=1;fontSize=13;fontStyle=1" vertex="1" parent="WIyWlLk6GJQsqaUBKTNV-1">
          <mxGeometry x="667" y="140" width="120" height="60" as="geometry" />
        </mxCell>
        <mxCell id="emG7d5RUnfRBMHwXVIp8-56" style="edgeStyle=orthogonalEdgeStyle;rounded=0;orthogonalLoop=1;jettySize=auto;html=1;fontSize=13;fontStyle=1" edge="1" parent="WIyWlLk6GJQsqaUBKTNV-1" source="emG7d5RUnfRBMHwXVIp8-49" target="emG7d5RUnfRBMHwXVIp8-50">
          <mxGeometry relative="1" as="geometry" />
        </mxCell>
        <mxCell id="emG7d5RUnfRBMHwXVIp8-49" value="보행 신호등&lt;br style=&quot;font-size: 13px;&quot;&gt;빨간불" style="rounded=0;whiteSpace=wrap;html=1;fontSize=13;fontStyle=1" vertex="1" parent="WIyWlLk6GJQsqaUBKTNV-1">
          <mxGeometry x="307" y="330" width="120" height="60" as="geometry" />
        </mxCell>
        <mxCell id="emG7d5RUnfRBMHwXVIp8-51" style="edgeStyle=orthogonalEdgeStyle;rounded=0;orthogonalLoop=1;jettySize=auto;html=1;entryX=0.5;entryY=1;entryDx=0;entryDy=0;fontSize=13;fontStyle=1" edge="1" parent="WIyWlLk6GJQsqaUBKTNV-1" source="emG7d5RUnfRBMHwXVIp8-50" target="emG7d5RUnfRBMHwXVIp8-47">
          <mxGeometry relative="1" as="geometry" />
        </mxCell>
        <mxCell id="emG7d5RUnfRBMHwXVIp8-50" value="보행 신호등&lt;br style=&quot;font-size: 13px;&quot;&gt;초록불" style="rounded=0;whiteSpace=wrap;html=1;fontSize=13;fontStyle=1" vertex="1" parent="WIyWlLk6GJQsqaUBKTNV-1">
          <mxGeometry x="922" y="330" width="120" height="60" as="geometry" />
        </mxCell>
        <mxCell id="emG7d5RUnfRBMHwXVIp8-78" style="edgeStyle=orthogonalEdgeStyle;rounded=0;orthogonalLoop=1;jettySize=auto;html=1;entryX=0;entryY=0.5;entryDx=0;entryDy=0;fontSize=13;fontStyle=1" edge="1" parent="WIyWlLk6GJQsqaUBKTNV-1" source="emG7d5RUnfRBMHwXVIp8-59" target="emG7d5RUnfRBMHwXVIp8-62">
          <mxGeometry relative="1" as="geometry" />
        </mxCell>
        <mxCell id="emG7d5RUnfRBMHwXVIp8-59" value="자동차 신호등&lt;br style=&quot;font-size: 13px;&quot;&gt;초록불" style="rounded=0;whiteSpace=wrap;html=1;fontSize=13;fontStyle=1" vertex="1" parent="WIyWlLk6GJQsqaUBKTNV-1">
          <mxGeometry x="307" y="630" width="120" height="60" as="geometry" />
        </mxCell>
        <mxCell id="emG7d5RUnfRBMHwXVIp8-79" style="edgeStyle=orthogonalEdgeStyle;rounded=0;orthogonalLoop=1;jettySize=auto;html=1;fontSize=13;fontStyle=1" edge="1" parent="WIyWlLk6GJQsqaUBKTNV-1" source="emG7d5RUnfRBMHwXVIp8-62" target="emG7d5RUnfRBMHwXVIp8-63">
          <mxGeometry relative="1" as="geometry" />
        </mxCell>
        <mxCell id="emG7d5RUnfRBMHwXVIp8-62" value="자동차 신호등&lt;br style=&quot;font-size: 13px;&quot;&gt;주황불" style="rounded=0;whiteSpace=wrap;html=1;fontSize=13;fontStyle=1" vertex="1" parent="WIyWlLk6GJQsqaUBKTNV-1">
          <mxGeometry x="507" y="630" width="120" height="60" as="geometry" />
        </mxCell>
        <mxCell id="emG7d5RUnfRBMHwXVIp8-80" style="edgeStyle=orthogonalEdgeStyle;rounded=0;orthogonalLoop=1;jettySize=auto;html=1;entryX=0.5;entryY=1;entryDx=0;entryDy=0;fontSize=13;fontStyle=1" edge="1" parent="WIyWlLk6GJQsqaUBKTNV-1" source="emG7d5RUnfRBMHwXVIp8-63" target="emG7d5RUnfRBMHwXVIp8-59">
          <mxGeometry relative="1" as="geometry">
            <Array as="points">
              <mxPoint x="767" y="780" />
              <mxPoint x="367" y="780" />
            </Array>
          </mxGeometry>
        </mxCell>
        <mxCell id="emG7d5RUnfRBMHwXVIp8-63" value="자동차 신호등&lt;br style=&quot;font-size: 13px;&quot;&gt;빨간불" style="rounded=0;whiteSpace=wrap;html=1;fontSize=13;fontStyle=1" vertex="1" parent="WIyWlLk6GJQsqaUBKTNV-1">
          <mxGeometry x="707" y="630" width="120" height="60" as="geometry" />
        </mxCell>
        <mxCell id="emG7d5RUnfRBMHwXVIp8-65" value="" style="endArrow=classic;html=1;entryX=0;entryY=0.5;entryDx=0;entryDy=0;fontSize=13;fontStyle=1" edge="1" parent="WIyWlLk6GJQsqaUBKTNV-1" target="emG7d5RUnfRBMHwXVIp8-59">
          <mxGeometry width="50" height="50" relative="1" as="geometry">
            <mxPoint x="247" y="360" as="sourcePoint" />
            <mxPoint x="787" y="430" as="targetPoint" />
            <Array as="points">
              <mxPoint x="247" y="660" />
            </Array>
          </mxGeometry>
        </mxCell>
        <mxCell id="emG7d5RUnfRBMHwXVIp8-67" value="블루투스로&lt;br style=&quot;font-size: 13px;&quot;&gt;빨간불 로그 전송" style="rounded=0;whiteSpace=wrap;html=1;fontSize=13;fontStyle=1" vertex="1" parent="WIyWlLk6GJQsqaUBKTNV-1">
          <mxGeometry x="307" y="450" width="120" height="60" as="geometry" />
        </mxCell>
        <mxCell id="emG7d5RUnfRBMHwXVIp8-75" value="블루투스로&lt;br style=&quot;font-size: 13px;&quot;&gt;초록불 로그 전송" style="rounded=0;whiteSpace=wrap;html=1;fontSize=13;fontStyle=1" vertex="1" parent="WIyWlLk6GJQsqaUBKTNV-1">
          <mxGeometry x="922" y="450" width="120" height="60" as="geometry" />
        </mxCell>
        <mxCell id="emG7d5RUnfRBMHwXVIp8-76" value="" style="endArrow=classic;startArrow=classic;html=1;entryX=0.5;entryY=1;entryDx=0;entryDy=0;fontSize=13;fontStyle=1" edge="1" parent="WIyWlLk6GJQsqaUBKTNV-1" target="emG7d5RUnfRBMHwXVIp8-49">
          <mxGeometry width="50" height="50" relative="1" as="geometry">
            <mxPoint x="367" y="449" as="sourcePoint" />
            <mxPoint x="367" y="399" as="targetPoint" />
          </mxGeometry>
        </mxCell>
        <mxCell id="emG7d5RUnfRBMHwXVIp8-77" value="" style="endArrow=classic;startArrow=classic;html=1;entryX=0.5;entryY=1;entryDx=0;entryDy=0;fontSize=13;fontStyle=1" edge="1" parent="WIyWlLk6GJQsqaUBKTNV-1">
          <mxGeometry width="50" height="50" relative="1" as="geometry">
            <mxPoint x="981.4100000000001" y="449" as="sourcePoint" />
            <mxPoint x="981.4100000000001" y="390" as="targetPoint" />
          </mxGeometry>
        </mxCell>
        <mxCell id="emG7d5RUnfRBMHwXVIp8-83" style="edgeStyle=orthogonalEdgeStyle;rounded=0;orthogonalLoop=1;jettySize=auto;html=1;fontSize=13;fontStyle=1" edge="1" parent="WIyWlLk6GJQsqaUBKTNV-1" source="emG7d5RUnfRBMHwXVIp8-81">
          <mxGeometry relative="1" as="geometry">
            <mxPoint x="367" y="169.99999999999977" as="targetPoint" />
          </mxGeometry>
        </mxCell>
        <mxCell id="emG7d5RUnfRBMHwXVIp8-81" value="블루투스로&lt;br style=&quot;font-size: 13px;&quot;&gt;횡단보도 침범 알림" style="rounded=0;whiteSpace=wrap;html=1;fontSize=13;fontStyle=1" vertex="1" parent="WIyWlLk6GJQsqaUBKTNV-1">
          <mxGeometry x="467" y="140" width="120" height="60" as="geometry" />
        </mxCell>
      </root>
    </mxGraphModel>
  </diagram>
</mxfile>
